<?xml version="1.0" encoding="UTF-8" standalone="no"?>
<svg
   xmlns:dc="http://purl.org/dc/elements/1.1/"
   xmlns:cc="http://creativecommons.org/ns#"
   xmlns:rdf="http://www.w3.org/1999/02/22-rdf-syntax-ns#"
   xmlns:svg="http://www.w3.org/2000/svg"
   xmlns="http://www.w3.org/2000/svg"
   xmlns:sodipodi="http://sodipodi.sourceforge.net/DTD/sodipodi-0.dtd"
   xmlns:inkscape="http://www.inkscape.org/namespaces/inkscape"
   version="1.1"
   id="layer"
   x="0px"
   y="0px"
   viewBox="0 0 150 150"
   xml:space="preserve"
   sodipodi:docname="concordia_logo.svg"
   width="150"
   height="150"
   inkscape:version="1.0.2 (e86c870879, 2021-01-15, custom)"><metadata
   id="metadata85"><rdf:RDF><cc:Work
       rdf:about=""><dc:format>image/svg+xml</dc:format><dc:type
         rdf:resource="http://purl.org/dc/dcmitype/StillImage" /><dc:title></dc:title></cc:Work></rdf:RDF></metadata><defs
   id="defs83">
	
	
	
	
	
	
	
	
	
	
	
	
	
	
	
	
	
	
	
	
	
	
	
	
	
	
	
	
	
	
	
	
	
	
	
	
	
</defs><sodipodi:namedview
   pagecolor="#ffffff"
   bordercolor="#666666"
   borderopacity="1"
   objecttolerance="10"
   gridtolerance="10"
   guidetolerance="10"
   inkscape:pageopacity="0"
   inkscape:pageshadow="2"
   inkscape:window-width="2560"
   inkscape:window-height="1377"
   id="namedview81"
   showgrid="false"
   inkscape:zoom="1.5736196"
   inkscape:cx="305.6"
   inkscape:cy="76.463472"
   inkscape:window-x="1912"
   inkscape:window-y="-8"
   inkscape:window-maximized="1"
   inkscape:current-layer="layer" />
<style
   type="text/css"
   id="style2">
	.st0{fill:#980027;}
	.st1{fill:#BA9866;}
	.st2{fill:#D7C1A0;}
	.st3{fill:#FFFFFF;}
</style>
<g
   id="g957"
   transform="translate(16.700005,3.7182698)"><polygon
     class="st2"
     points="122,289.8 120.1,300.1 120.7,301.3 137,274.4 20.4,274.4 36.8,301.8 79.6,309.8 "
     id="polygon62"
     transform="translate(-20.4,-249.53653)" /><polygon
     class="st3"
     points="35.4,299.5 36.8,301.8 79.6,309.8 87.3,306.2 79.1,310.2 36,302.1 "
     id="polygon64"
     transform="translate(-20.4,-249.53653)" /><path
     class="st3"
     d="m 59.2,60.263472 -42.8,-8.1 -1.4,-2.3 -2.8,-13.1 c 2.1,1.6 24.6,9.4 29.2,10.9 v 0 c -3,-4.9 -7.8,-9.6 -12.3,-14.2 3.2,3.3 8.9,6.5 13.4,9.3 1.7,1.1 3.4,2.1 5.3,3.1 -0.2,-5.2 -2.7,-10.4 -4.6,-15.4 1.4,3.8 5.6,7.9 8.7,11.5 0.9,1 1.8,2 2.9,3 2.5,-5 3.4,-10.4 3.5,-15.5 -0.1,4.7 0.9,10.6 3.5,15.4 1.3,-1.2 2.4,-2.5 3.5,-3.7 2.9,-3.4 6.7,-7.2 8.1,-10.7 -1.9,5.1 -4.2,10.3 -4.5,15.5 7.3,-3.7 13,-8.5 18.6,-12.6 -4.5,3.3 -7.6,7.8 -10.5,11.6 -0.6,0.8 -1.3,1.7 -1.8,2.6 h 0.1 c 4.6,-1.5 26.8,-8.1 26.8,-8.1 l -35,17 -7.9,3.8"
     id="path66" /><path
     class="st0"
     d="M 57.4,0.56347223 C 23.1,-1.8365278 4,4.1634722 0.5,4.8634722 v 9.5999998 c 10,-2.2 27.8,-5.2999998 53,-6.0999998 v 0 h 0.1 v 0 c 34.6,-0.7 55.9,3.3999998 61.9,4.8999998 v 0 c -0.1,0 -20.1,-9.2999998 -58.1,-12.69999977"
     id="path68" /><path
     class="st0"
     d="M 102.1,94.963472 C 87.4,112.86347 67,125.66347 58.7,129.36347 c -12.5,-5.8 -42.4,-26.3 -55.9,-66.199998 -0.3,-1.1 -0.6,-2.2 -0.9,-3.4 0.2,1.5 0.4,2.9 0.6,4.4 v -0.1 c 0.5,2.5 1,5 1.6,7.5 12.5,42.699998 43,64.899998 54.5,70.999998 9,-4.7 29,-21.9 43.5,-47.599998"
     id="path70" /><path
     class="st1"
     d="m 14.1,39.463472 6.4,38.1 c 0,0 15.1,22.699998 36.6,34.799998 V 61.863472 Z"
     id="path72" /><path
     class="st1"
     d="m 60.4,60.463472 v 51.799998 c 0.4,-0.3 0.9,-0.5 1.3,-0.8 0.4,-0.2 0.7,-0.4 1.1,-0.7 V 59.763472 Z"
     id="path74" /><path
     class="st0"
     d="m 104.5,37.563472 c 0,0 -35.3,18.3 -46,19.3 -11.9,-1.2 -44.4,-17.4 -44.4,-17.4 20.9,17.4 43.8,22.8 44.7,23.1 v 0 c 0,0 17.3,-3.4 41,-20.3 -0.2,3.7 -1.3,14.5 -3.3,26.8 z"
     id="path76" /></g>
</svg>
