<?xml version="1.0" encoding="UTF-8" standalone="no"?>
<svg
   xmlns:dc="http://purl.org/dc/elements/1.1/"
   xmlns:cc="http://creativecommons.org/ns#"
   xmlns:rdf="http://www.w3.org/1999/02/22-rdf-syntax-ns#"
   xmlns:svg="http://www.w3.org/2000/svg"
   xmlns="http://www.w3.org/2000/svg"
   xmlns:xlink="http://www.w3.org/1999/xlink"
   xmlns:sodipodi="http://sodipodi.sourceforge.net/DTD/sodipodi-0.dtd"
   xmlns:inkscape="http://www.inkscape.org/namespaces/inkscape"
   version="1.1"
   id="Calque_1"
   x="0px"
   y="0px"
   width="361.45801"
   height="278.242"
   viewBox="0 0 361.458 278.24199"
   enable-background="new 0 0 841.89 595.28"
   xml:space="preserve"
   sodipodi:docname="LogoLIRMMlong.svg"
   inkscape:version="1.0.2 (e86c870879, 2021-01-15, custom)"><metadata
   id="metadata61"><rdf:RDF><cc:Work
       rdf:about=""><dc:format>image/svg+xml</dc:format><dc:type
         rdf:resource="http://purl.org/dc/dcmitype/StillImage" /><dc:title></dc:title></cc:Work></rdf:RDF></metadata><defs
   id="defs59" /><sodipodi:namedview
   pagecolor="#ffffff"
   bordercolor="#666666"
   borderopacity="1"
   objecttolerance="10"
   gridtolerance="10"
   guidetolerance="10"
   inkscape:pageopacity="0"
   inkscape:pageshadow="2"
   inkscape:window-width="1636"
   inkscape:window-height="977"
   id="namedview57"
   showgrid="false"
   inkscape:zoom="0.89029823"
   inkscape:cx="344.44968"
   inkscape:cy="71.890624"
   inkscape:window-x="2467"
   inkscape:window-y="239"
   inkscape:window-maximized="0"
   inkscape:current-layer="Calque_1" />
<g
   id="g12"
   transform="translate(-320.345,-63.876)">
	<path
   fill="#575756"
   d="m 373.414,341.535 c 0,0 -41.981,0.002 -47.339,0 -5.356,-0.002 -5.73,-4.864 -5.73,-4.864 v -84.044 l 21.438,12.243 -0.372,55.367 h 32.003 z"
   id="path2" />
	<path
   fill="#575756"
   d="m 406.828,341.535 h -21.066 v -88.908 h 21.066 z"
   id="path4" />
	<path
   fill="#575756"
   d="m 492.103,341.535 h -22.63 l -5.492,-15.781 c -2.018,-5.774 -3.832,-9.995 -5.444,-12.669 -1.613,-2.672 -3.183,-4.383 -4.711,-5.131 -1.529,-0.748 -3.504,-1.124 -5.923,-1.124 h -2.368 l -0.157,35.288 -21.875,-12.899 -0.022,-76.592 h 36.82 c 5.779,0 10.516,1.498 14.213,4.49 3.697,2.993 6.359,6.629 7.988,10.905 1.629,4.276 2.446,8.339 2.446,12.188 0,4.49 -0.682,8.286 -2.042,11.386 -1.362,3.101 -2.798,5.357 -4.31,6.769 -1.511,1.411 -3.211,2.758 -5.091,4.04 2.251,1.668 4.108,3.646 5.57,5.934 1.461,2.289 3.451,6.919 5.973,13.888 z m -28.627,-60.812 c 0,-4.105 -1.059,-6.97 -3.176,-8.596 -2.116,-1.624 -5.562,-2.438 -10.332,-2.438 h -4.434 v 21.426 h 4.536 c 5.141,0 8.659,-0.716 10.557,-2.15 1.897,-1.431 2.849,-4.179 2.849,-8.242 z"
   id="path6" />
	<path
   fill="#575756"
   d="m 582.92,341.535 h -21.066 v -51.511 l -19.001,29.828 h -1.661 l -19.051,-29.828 v 39.792 l -20.461,11.719 v -88.908 h 19.1 l 21.47,33.355 21.569,-33.355 h 19.102 v 88.908 z"
   id="path8" />
	<path
   fill="#575756"
   d="m 681.802,341.535 -21.19,-12.065 0.122,-39.445 -19,29.828 h -1.662 l -19.051,-29.828 v 51.511 h -20.462 v -88.908 h 19.101 l 21.47,33.355 21.572,-33.355 h 19.101 v 88.907 z"
   id="path10" />
</g>
<g
   id="g54"
   transform="translate(-53.79548,-209.876)">
	<g
   id="g18">
		<path
   fill="#ffffff"
   d="m 234.678,210.626 c -4.029,-0.017 -73.402,38.934 -75.225,41.521 -2.746,3.896 -2.025,84.462 -0.242,87.75 2.018,3.717 70.312,43.678 73.756,43.881 4.509,0.268 75.171,-40.426 77.193,-44.322 1.645,-3.168 2.044,-83.209 -0.476,-86.993 -1.889,-2.837 -71.05,-41.821 -75.006,-41.837 z"
   id="path14" />
		<path
   fill="#575756"
   d="m 233.014,384.529 v 0 l -0.091,-0.002 c -4.374,-0.26 -72.489,-40.809 -74.37,-44.273 -1.639,-3.018 -3.032,-83.831 0.287,-88.539 1.237,-1.756 24.758,-15.128 37.023,-21.954 8.382,-4.665 35.953,-19.885 38.812,-19.885 4.014,0.016 73.281,38.639 75.634,42.17 1.721,2.583 1.92,31.731 1.925,44.143 0.008,16.426 -0.36,41.596 -1.407,43.611 -2.173,4.184 -72.705,44.729 -77.813,44.729 z m 1.658,-173.153 c -3.484,0.112 -71.828,37.859 -74.614,41.213 -0.856,1.237 -1.751,15.388 -1.675,43.506 0.068,25.05 0.826,42.056 1.49,43.447 1.799,3.104 68.74,42.906 73.142,43.486 4.377,0.002 74.425,-40.223 76.48,-43.92 1.889,-4.234 1.493,-83.219 -0.436,-86.232 -2.567,-3.322 -70.704,-41.34 -74.387,-41.5 z"
   id="path16" />
	</g>
	<g
   id="g52">
		<defs
   id="defs21">
			<path
   id="SVGID_1_"
   d="m 299.179,257.263 -61.423,-35.461 c -1.76,-1.017 -4.613,-1.017 -6.373,0 l -61.422,35.461 c -1.76,1.017 -3.188,3.482 -3.188,5.508 v 70.948 c 0,2.025 1.429,4.492 3.188,5.508 l 61.422,35.461 c 1.76,1.02 4.613,1.02 6.373,0 l 61.423,-35.461 c 1.76,-1.016 3.187,-3.482 3.187,-7.404 v -70.948 c -10e-4,-0.129 -1.428,-2.595 -3.187,-3.612 z" />
		</defs>
		<clipPath
   id="SVGID_2_">
			<use
   xlink:href="#SVGID_1_"
   overflow="visible"
   id="use23"
   x="0"
   y="0"
   width="100%"
   height="100%" />
		</clipPath>
		<polygon
   clip-path="url(#SVGID_2_)"
   fill="#1d71b8"
   points="211.971,259.104 211.971,285.199 257.169,259.104 302.365,285.199 302.365,259.104 257.169,233.008 "
   id="polygon26" />
		<polygon
   clip-path="url(#SVGID_2_)"
   fill="#ed910d"
   points="189.371,298.246 211.971,311.293 211.971,259.104 257.169,233.008 234.569,219.96 189.371,246.056 "
   id="polygon28" />
		<polygon
   clip-path="url(#SVGID_2_)"
   fill="#e5232a"
   points="211.971,337.387 234.569,324.34 189.371,298.246 189.371,246.056 166.772,259.104 166.772,311.293 "
   id="polygon30" />
		<polygon
   clip-path="url(#SVGID_2_)"
   fill="#1d71b8"
   points="257.169,337.387 257.169,311.293 211.971,337.387 166.772,311.293 166.772,337.387 211.971,363.482 "
   id="polygon32" />
		<polygon
   clip-path="url(#SVGID_2_)"
   fill="#ed910d"
   points="279.767,298.246 257.169,285.198 257.169,337.387 211.971,363.482 234.569,376.529 279.767,350.434 "
   id="polygon34" />
		<polygon
   clip-path="url(#SVGID_2_)"
   fill="#e5232a"
   points="257.169,259.104 234.569,272.151 279.767,298.246 279.767,350.434 302.365,337.387 302.365,285.199 "
   id="polygon36" />
		<polygon
   clip-path="url(#SVGID_2_)"
   fill="#ffffff"
   points="257.169,259.104 302.365,285.199 302.365,259.104 257.169,233.008 "
   id="polygon38" />
		<polygon
   clip-path="url(#SVGID_2_)"
   fill="#575756"
   points="211.971,259.104 257.92,233.188 234.569,219.96 188.77,246.404 "
   id="polygon40" />
		<polygon
   clip-path="url(#SVGID_2_)"
   fill="#ffffff"
   points="189.371,298.246 189.371,246.056 166.772,259.104 166.772,311.293 "
   id="polygon42" />
		<polygon
   clip-path="url(#SVGID_2_)"
   fill="#575756"
   points="211.971,337.387 166.772,310.766 166.772,337.387 211.971,363.482 "
   id="polygon44" />
		<polygon
   clip-path="url(#SVGID_2_)"
   fill="#ffffff"
   stroke="#ffffff"
   points="257.169,337.387 211.971,363.482 234.569,376.529 279.767,350.434 "
   id="polygon46" />
		<polygon
   clip-path="url(#SVGID_2_)"
   fill="#575756"
   points="279.767,298.246 279.767,350.434 302.365,337.387 302.42,284.653 "
   id="polygon48" />
		<use
   xlink:href="#SVGID_1_"
   overflow="visible"
   fill="none"
   stroke="#ffffff"
   id="use50"
   x="0"
   y="0"
   width="100%"
   height="100%" />
	</g>
</g>
</svg>
