<?xml version="1.0" encoding="UTF-8"?>
<!-- Generator: Adobe Illustrator 15.1.0, SVG Export Plug-In . SVG Version: 6.00 Build 0)  -->
<!DOCTYPE svg PUBLIC "-//W3C//DTD SVG 1.1//EN" "http://www.w3.org/Graphics/SVG/1.1/DTD/svg11.dtd">
<svg version="1.1" id="Calque_1" xmlns="http://www.w3.org/2000/svg" xmlns:xlink="http://www.w3.org/1999/xlink" x="0px" y="0px" width="841.89px" height="595.28px" viewBox="0 0 841.89 595.28" enable-background="new 0 0 841.89 595.28" xml:space="preserve">
<g>
	<path fill="#575756" d="M373.414,341.535c0,0-41.981,0.002-47.339,0c-5.356-0.002-5.73-4.864-5.73-4.864v-84.044l21.438,12.243   l-0.372,55.367h32.003V341.535z"/>
	<path fill="#575756" d="M406.828,341.535h-21.066v-88.908h21.066V341.535z"/>
	<path fill="#575756" d="M492.103,341.535h-22.63l-5.492-15.781c-2.018-5.774-3.832-9.995-5.444-12.669   c-1.613-2.672-3.183-4.383-4.711-5.131c-1.529-0.748-3.504-1.124-5.923-1.124h-2.368l-0.157,35.288l-21.875-12.899l-0.022-76.592   h36.82c5.779,0,10.516,1.498,14.213,4.49c3.697,2.993,6.359,6.629,7.988,10.905s2.446,8.339,2.446,12.188   c0,4.49-0.682,8.286-2.042,11.386c-1.362,3.101-2.798,5.357-4.31,6.769c-1.511,1.411-3.211,2.758-5.091,4.04   c2.251,1.668,4.108,3.646,5.57,5.934c1.461,2.289,3.451,6.919,5.973,13.888L492.103,341.535z M463.476,280.723   c0-4.105-1.059-6.97-3.176-8.596c-2.116-1.624-5.562-2.438-10.332-2.438h-4.434v21.426h4.536c5.141,0,8.659-0.716,10.557-2.15   C462.524,287.534,463.476,284.786,463.476,280.723z"/>
	<path fill="#575756" d="M582.92,341.535h-21.066v-51.511l-19.001,29.828h-1.661l-19.051-29.828v39.792l-20.461,11.719v-88.908h19.1   l21.47,33.355l21.569-33.355h19.102V341.535z"/>
	<path fill="#575756" d="M681.802,341.535l-21.19-12.065l0.122-39.445l-19,29.828h-1.662l-19.051-29.828v51.511h-20.462v-88.908   h19.101l21.47,33.355l21.572-33.355h19.101V341.535z"/>
</g>
<g>
	<g>
		<path fill="#FFFFFF" d="M234.678,210.626c-4.029-0.017-73.402,38.934-75.225,41.521c-2.746,3.896-2.025,84.462-0.242,87.75    c2.018,3.717,70.312,43.678,73.756,43.881c4.509,0.268,75.171-40.426,77.193-44.322c1.645-3.168,2.044-83.209-0.476-86.993    C307.795,249.626,238.634,210.642,234.678,210.626z"/>
		<path fill="#575756" d="M233.014,384.529L233.014,384.529l-0.091-0.002c-4.374-0.26-72.489-40.809-74.37-44.273    c-1.639-3.018-3.032-83.831,0.287-88.539c1.237-1.756,24.758-15.128,37.023-21.954c8.382-4.665,35.953-19.885,38.812-19.885    c4.014,0.016,73.281,38.639,75.634,42.17c1.721,2.583,1.92,31.731,1.925,44.143c0.008,16.426-0.36,41.596-1.407,43.611    C308.654,343.984,238.122,384.529,233.014,384.529z M234.672,211.376c-3.484,0.112-71.828,37.859-74.614,41.213    c-0.856,1.237-1.751,15.388-1.675,43.506c0.068,25.05,0.826,42.056,1.49,43.447c1.799,3.104,68.74,42.906,73.142,43.486    c4.377,0.002,74.425-40.223,76.48-43.92c1.889-4.234,1.493-83.219-0.436-86.232C306.492,249.554,238.355,211.536,234.672,211.376z    "/>
	</g>
	<g>
		<defs>
			<path id="SVGID_1_" d="M299.179,257.263l-61.423-35.461c-1.76-1.017-4.613-1.017-6.373,0l-61.422,35.461     c-1.76,1.017-3.188,3.482-3.188,5.508v70.948c0,2.025,1.429,4.492,3.188,5.508l61.422,35.461c1.76,1.02,4.613,1.02,6.373,0     l61.423-35.461c1.76-1.016,3.187-3.482,3.187-7.404v-70.948C302.365,260.746,300.938,258.28,299.179,257.263z"/>
		</defs>
		<clipPath id="SVGID_2_">
			<use xlink:href="#SVGID_1_" overflow="visible"/>
		</clipPath>
		<polygon clip-path="url(#SVGID_2_)" fill="#1D71B8" points="302.365,259.104 257.169,233.008 211.971,259.104 211.971,285.199     257.169,259.104 302.365,285.199   "/>
		<polygon clip-path="url(#SVGID_2_)" fill="#ED910D" points="234.569,219.96 189.371,246.056 189.371,298.246 211.971,311.293     211.971,259.104 257.169,233.008   "/>
		<polygon clip-path="url(#SVGID_2_)" fill="#E5232A" points="166.772,259.104 166.772,311.293 211.971,337.387 234.569,324.34     189.371,298.246 189.371,246.056   "/>
		<polygon clip-path="url(#SVGID_2_)" fill="#1D71B8" points="166.772,337.387 211.971,363.482 257.169,337.387 257.169,311.293     211.971,337.387 166.772,311.293   "/>
		<polygon clip-path="url(#SVGID_2_)" fill="#ED910D" points="234.569,376.529 279.767,350.434 279.767,298.246 257.169,285.198     257.169,337.387 211.971,363.482   "/>
		<polygon clip-path="url(#SVGID_2_)" fill="#E5232A" points="302.365,337.387 302.365,285.199 257.169,259.104 234.569,272.151     279.767,298.246 279.767,350.434   "/>
		<polygon clip-path="url(#SVGID_2_)" fill="#FFFFFF" points="302.365,259.104 257.169,233.008 257.169,259.104 302.365,285.199       "/>
		<polygon clip-path="url(#SVGID_2_)" fill="#575756" points="234.569,219.96 188.77,246.404 211.971,259.104 257.92,233.188   "/>
		<polygon clip-path="url(#SVGID_2_)" fill="#FFFFFF" points="166.772,259.104 166.772,311.293 189.371,298.246 189.371,246.056       "/>
		<polygon clip-path="url(#SVGID_2_)" fill="#575756" points="166.772,337.387 211.971,363.482 211.971,337.387 166.772,310.766       "/>
		<polygon clip-path="url(#SVGID_2_)" fill="#FFFFFF" stroke="#FFFFFF" points="234.569,376.529 279.767,350.434 257.169,337.387     211.971,363.482   "/>
		<polygon clip-path="url(#SVGID_2_)" fill="#575756" points="302.365,337.387 302.42,284.653 279.767,298.246 279.767,350.434       "/>
		<use xlink:href="#SVGID_1_" overflow="visible" fill="none" stroke="#FFFFFF"/>
	</g>
</g>
</svg>