<?xml version="1.0" encoding="UTF-8" standalone="no"?>
<svg
   xmlns:dc="http://purl.org/dc/elements/1.1/"
   xmlns:cc="http://creativecommons.org/ns#"
   xmlns:rdf="http://www.w3.org/1999/02/22-rdf-syntax-ns#"
   xmlns:svg="http://www.w3.org/2000/svg"
   xmlns="http://www.w3.org/2000/svg"
   xmlns:sodipodi="http://sodipodi.sourceforge.net/DTD/sodipodi-0.dtd"
   xmlns:inkscape="http://www.inkscape.org/namespaces/inkscape"
   width="2500"
   height="2500"
   viewBox="0 0 192.756 192.756"
   version="1.1"
   id="svg26"
   sodipodi:docname="McGill_logo.svg"
   inkscape:version="1.0.2 (e86c870879, 2021-01-15, custom)">
  <metadata
     id="metadata32">
    <rdf:RDF>
      <cc:Work
         rdf:about="">
        <dc:format>image/svg+xml</dc:format>
        <dc:type
           rdf:resource="http://purl.org/dc/dcmitype/StillImage" />
      </cc:Work>
    </rdf:RDF>
  </metadata>
  <defs
     id="defs30" />
  <sodipodi:namedview
     pagecolor="#ffffff"
     bordercolor="#666666"
     borderopacity="1"
     objecttolerance="10"
     gridtolerance="10"
     guidetolerance="10"
     inkscape:pageopacity="0"
     inkscape:pageshadow="2"
     inkscape:window-width="2560"
     inkscape:window-height="1377"
     id="namedview28"
     showgrid="false"
     inkscape:zoom="0.29019662"
     inkscape:cx="1048.1415"
     inkscape:cy="1046.123"
     inkscape:window-x="1912"
     inkscape:window-y="-8"
     inkscape:window-maximized="1"
     inkscape:current-layer="svg26" />
  <path
     d="M 39.7,82.799 C 34.447,63.886 37.494,46.34 37.494,25.115 56.407,15.764 75.214,14.924 95.597,14.924 c 17.548,0 42.448,2.207 57.474,10.191 1.576,19.963 2.416,37.51 -2.732,60.205 -5.043,22.695 -19.963,54.111 -54.005,77.227 C 59.138,138.275 47.055,108.855 39.7,82.799 Z"
     fill="#cf4037"
     id="path4"
     style="clip-rule:evenodd;fill-rule:evenodd" />
  <path
     d="M 57.457,55.061 39.174,74.918 c 4.098,19.123 15.445,59.048 56.948,86.052 41.188,-28.369 52.219,-67.14 54.635,-86.472 L 133.001,54.955 113.353,74.918 95.177,55.166 77.105,74.708 Z m 8.405,-20.279 c -0.21,0 -0.734,-0.105 0,-0.316 0.525,0 1.261,0 2.207,1.367 0.525,-0.21 1.576,-1.892 2.731,-1.367 -0.104,1.682 -3.677,8.09 -4.098,8.722 -1.575,-0.946 -10.717,-1.366 -9.876,-1.366 0.736,0 -8.616,0.21 -9.877,1.366 -0.42,-0.946 -4.098,-7.04 -4.098,-9.036 1.051,-0.42 2.312,1.155 2.731,1.471 0.946,-1.471 1.787,-1.471 2.102,-1.471 0.841,0.314 0.42,0.525 0.105,0.63 -4.413,3.782 2.102,7.774 3.363,3.782 5.883,0.526 4.413,-4.098 2.941,-4.833 -1.051,-0.315 -0.315,-0.42 0,-0.42 0.525,-0.21 1.156,-0.21 1.156,0.105 0,-2.417 0.316,-4.203 1.577,-4.833 1.365,0.841 1.681,2.417 1.365,4.833 0.316,-0.315 0.946,-0.105 1.366,-0.105 0.21,0.105 1.156,0.105 0.21,0.63 -1.576,0.525 -2.941,5.359 2.732,4.623 1.367,3.993 8.197,-0.524 3.363,-3.782 z m -3.782,4.833 1.471,1.997 -3.047,-0.421 z m -10.402,0 -1.366,1.997 3.152,-0.21 z m 5.149,-2.206 2.311,3.782 H 54.83 Z"
     fill="#ffffff"
     id="path6"
     style="clip-rule:evenodd;fill-rule:evenodd" />
  <path
     d="m 49.367,47.706 c -0.631,-1.051 -1.366,-2.837 -1.787,-3.573 1.577,-1.156 7.565,-1.261 9.562,-1.366 3.257,0 7.671,0.525 9.246,1.366 0,-0.315 -0.945,2.837 -1.365,3.783 -2.416,-0.946 -5.989,-1.051 -8.091,-1.051 -2.522,-0.21 -5.569,0.105 -7.565,0.841 z m 14.709,-3.153 c 0.63,0 1.051,0.421 1.051,1.051 0,0.631 -0.421,1.051 -1.051,1.051 -0.63,0 -1.051,-0.42 -1.051,-1.051 0,-0.63 0.421,-1.051 1.051,-1.051 z m -3.467,-0.735 c 0.63,0 1.051,0.42 1.051,1.051 0,0.631 -0.42,1.05 -1.051,1.05 -0.631,0 -1.051,-0.419 -1.051,-1.05 0,-0.631 0.42,-1.051 1.051,-1.051 z m -3.257,-0.316 c 0.524,0 1.156,0.63 1.156,1.156 0,0.525 -0.631,1.051 -1.156,1.051 -0.525,0 -1.051,-0.525 -1.051,-1.051 0,-0.525 0.526,-1.156 1.051,-1.156 z m -3.573,0.316 c 0.63,0 1.156,0.42 1.156,1.051 0,0.735 -0.525,1.05 -1.156,1.05 -0.525,0 -1.051,-0.315 -1.051,-1.05 a 1.054,1.054 0 0 1 1.051,-1.051 z m -3.467,0.735 c 0.42,0 0.841,0.315 0.841,1.051 0,0.631 -0.42,1.051 -0.841,1.051 -0.631,0 -1.155,-0.42 -1.155,-1.051 0,-0.735 0.524,-1.051 1.155,-1.051 z"
     fill="#ffffff"
     id="path8"
     style="clip-rule:evenodd;fill-rule:evenodd" />
  <path
     d="m 57.141,47.706 c 4.308,0 7.671,0.42 7.671,1.051 0,0.42 -3.363,0.735 -7.671,0.735 -4.098,0 -7.565,-0.314 -7.565,-0.735 0,-0.631 3.467,-1.051 7.565,-1.051 z m 84.896,-12.924 c -0.525,0 -0.945,-0.105 0,-0.316 0.42,0 1.367,0 1.996,1.367 0.422,-0.21 1.787,-1.892 2.943,-1.367 -0.211,1.682 -3.572,8.09 -4.098,8.722 -1.576,-0.946 -10.822,-1.366 -9.982,-1.366 0.842,0 -8.404,0.21 -9.771,1.366 -0.42,-0.946 -4.098,-7.04 -4.307,-9.036 1.365,-0.42 2.521,1.155 2.941,1.471 0.945,-1.471 1.785,-1.471 1.996,-1.471 0.736,0.314 0.525,0.525 0.211,0.63 -4.729,3.782 2.1,7.774 3.256,3.782 5.99,0.526 4.414,-4.098 2.943,-4.833 -1.051,-0.315 -0.211,-0.42 0.104,-0.42 0.211,-0.21 1.156,-0.21 1.156,0.105 0,-2.417 0,-4.203 1.471,-4.833 1.262,0.841 1.682,2.417 1.471,4.833 0.211,-0.315 0.945,-0.105 1.367,-0.105 0.105,0.105 0.945,0.105 0,0.63 -1.576,0.525 -2.732,5.359 2.941,4.623 1.052,3.993 8.091,-0.524 3.362,-3.782 z m -3.781,4.833 1.471,1.997 -3.047,-0.421 z m -5.36,-2.206 2.102,3.782 h -3.992 z m -5.359,2.206 -1.365,1.997 3.469,-0.21 z"
     fill="#ffffff"
     id="path10"
     style="clip-rule:evenodd;fill-rule:evenodd" />
  <path
     d="m 125.438,47.706 c -0.631,-1.051 -1.367,-2.837 -1.787,-3.573 1.682,-1.156 7.566,-1.261 9.562,-1.366 3.361,0 7.773,0.525 9.244,1.366 0,-0.315 -0.945,2.837 -1.365,3.783 -2.416,-0.946 -5.883,-1.051 -8.09,-1.051 -2.522,-0.21 -5.568,0.105 -7.564,0.841 z m 14.708,-3.153 c 0.631,0 1.156,0.421 1.156,1.051 0,0.631 -0.525,1.051 -1.156,1.051 -0.525,0 -1.051,-0.42 -1.051,-1.051 a 1.055,1.055 0 0 1 1.051,-1.051 z m -3.466,-0.735 c 0.631,0 1.051,0.42 1.051,1.051 0,0.631 -0.42,1.05 -1.051,1.05 -0.631,0 -1.051,-0.419 -1.051,-1.05 0,-0.631 0.42,-1.051 1.051,-1.051 z m -3.153,-0.316 c 0.42,0 1.051,0.63 1.051,1.156 0,0.525 -0.631,1.051 -1.051,1.051 a 1.053,1.053 0 0 1 -1.051,-1.051 c 0.001,-0.525 0.42,-1.156 1.051,-1.156 z m -3.677,0.316 c 0.631,0 1.262,0.42 1.262,1.051 0,0.735 -0.631,1.05 -1.262,1.05 -0.42,0 -1.051,-0.315 -1.051,-1.05 0,-0.631 0.631,-1.051 1.051,-1.051 z m -3.467,0.735 c 0.42,0 0.945,0.315 0.945,1.051 0,0.631 -0.525,1.051 -0.945,1.051 -0.631,0 -1.051,-0.42 -1.051,-1.051 0,-0.735 0.42,-1.051 1.051,-1.051 z"
     fill="#ffffff"
     id="path12"
     style="clip-rule:evenodd;fill-rule:evenodd" />
  <path
     d="m 133.318,47.706 c 4.201,0 7.564,0.42 7.564,1.051 0,0.42 -3.363,0.735 -7.564,0.735 -4.1,0 -7.672,-0.314 -7.672,-0.735 0,-0.631 3.573,-1.051 7.672,-1.051 z M 82.673,23.014 c 0,0 2.627,1.051 5.043,0.21 2.837,-1.366 5.254,-1.891 7.25,-0.945 V 46.13 c -1.681,-0.63 -3.572,-0.42 -6.304,0.21 -2.417,0.735 -3.993,0.735 -5.989,0.315 z m 7.776,17.547 c 0,-0.841 0.525,-1.051 0.945,-1.051 0.315,0 0.841,0.21 0.841,1.051 0,0.945 -0.525,1.155 -0.841,1.155 -0.42,0 -0.945,-0.21 -0.945,-1.155 z m -0.63,0 c 0,1.576 1.155,1.786 1.575,1.786 0.421,0 1.472,-0.21 1.472,-1.786 0,-1.471 -1.051,-1.576 -1.472,-1.576 -0.42,0 -1.575,0.105 -1.575,1.576 z m -1.262,0.84 -1.261,-2.312 h -0.735 v 3.257 h 0.631 v -2.312 l 1.261,2.312 h 0.735 V 39.09 h -0.631 z m -3.362,1.156 h 0.631 V 39.405 H 85.195 Z M 93.391,32.05 H 92.445 L 91.92,34.572 91.29,32.05 h -0.945 v 3.153 h 0.63 v -2.627 l 0.63,2.627 h 0.525 l 0.631,-2.627 v 2.627 h 0.631 V 32.05 Z m -5.989,1.891 c 0,-0.841 0.525,-1.156 0.945,-1.156 0.21,0 0.841,0.315 0.841,1.156 0,0.946 -0.631,1.156 -0.841,1.156 -0.42,0 -0.945,-0.21 -0.945,-1.156 z m -0.631,0 c 0,1.471 1.051,1.681 1.576,1.681 0.315,0 1.472,-0.21 1.472,-1.681 0,-1.471 -1.156,-1.681 -1.472,-1.681 -0.525,0.001 -1.576,0.21 -1.576,1.681 z m -2.417,-0.735 h 0.63 c 0.315,0 0.736,0.105 0.736,1.051 0,0.526 -0.21,1.051 -0.736,1.051 h -0.63 z m -0.735,2.627 h 1.366 c 1.155,0 1.366,-0.946 1.366,-1.577 0,-0.63 -0.211,-1.576 -1.261,-1.576 h -1.471 z m 6.094,-7.67 -1.26,-2.207 h -0.736 v 3.153 h 0.631 v -2.207 l 1.261,2.207 h 0.736 v -3.153 h -0.631 v 2.207 z m -3.467,1.05 h 0.525 v -3.152 h -0.525 z m -4.623,-5.989 -1.997,1.786 v 23.851 l 1.997,-2.101 z m -1.261,26.057 2.207,-1.785 c 1.681,0.42 5.148,-0.21 6.725,-0.526 2.732,-0.315 3.888,-0.84 5.884,0 -1.156,0.526 -1.786,1.471 -1.786,2.311 z m 30.365,0 -2.205,-1.785 c -1.893,0.42 -5.045,-0.21 -6.725,-0.526 -2.943,-0.315 -3.889,-0.84 -5.674,0 0.946,0.526 1.471,1.471 1.366,2.311 z m -1.577,-26.372 2.102,2.101 v 23.641 l -2.102,-1.996 z m -0.839,0.105 c 0,0 -2.732,1.051 -5.148,0.21 -2.941,-1.366 -5.254,-1.891 -6.934,-0.945 V 46.13 c 1.471,-0.63 3.256,-0.42 5.883,0.21 2.627,0.735 4.098,0.735 6.199,0.315 z m -9.666,19.228 h 1.471 c 1.051,0 1.26,-1.051 1.26,-1.681 0,-0.631 -0.209,-1.576 -1.26,-1.576 h -1.471 z m 0.734,-2.627 h 0.631 c 0.316,0 0.631,0 0.631,0.946 0,0.524 -0.105,1.155 -0.631,1.155 h -0.631 z m 2.838,1.47 c 0,1.471 1.154,1.682 1.576,1.682 0.42,0 1.576,-0.21 1.576,-1.682 0,-1.471 -1.156,-1.681 -1.576,-1.681 -0.422,10e-4 -1.576,0.211 -1.576,1.681 z m 0.736,0 c 0,-0.84 0.418,-1.155 0.84,-1.155 0.314,0 0.84,0.315 0.84,1.155 0,0.946 -0.525,1.157 -0.84,1.157 -0.422,0 -0.84,-0.21 -0.84,-1.157 z m -2.523,-6.513 h 1.473 v -0.63 h -1.473 v -0.63 h 1.682 V 32.787 H 99.8 v 3.152 h 0.631 v -1.367 z m 2.418,1.47 h 0.734 v -3.257 h -0.734 z m -2.944,-8.93 c -0.105,-0.525 -0.42,-1.156 -1.365,-1.156 -0.84,0 -1.471,0.631 -1.471,1.681 0,1.157 0.631,1.681 1.471,1.681 0.736,0 1.26,-0.42 1.365,-1.155 H 99.17 c 0,0.42 -0.316,0.631 -0.631,0.631 -0.631,0 -0.84,-0.525 -0.84,-1.157 0,-0.84 0.525,-1.05 0.84,-1.05 0.525,0 0.631,0.315 0.631,0.525 z m 0.526,0.946 c 0,1.47 1.156,1.681 1.576,1.681 0.42,0 1.576,-0.211 1.576,-1.681 0,-1.471 -1.156,-1.681 -1.576,-1.681 -0.42,0 -1.576,0.209 -1.576,1.681 z m 0.736,0 c 0,-0.946 0.42,-1.156 0.84,-1.156 0.316,0 0.842,0.21 0.842,1.156 0,0.84 -0.525,1.156 -0.842,1.156 -0.42,-10e-4 -0.84,-0.316 -0.84,-1.156 z m 4.832,0.63 -1.26,-2.207 h -0.736 v 3.152 h 0.631 v -2.206 l 1.365,2.206 h 0.631 v -3.152 h -0.631 z M 95.597,47.496 c -0.84,0.945 -1.26,0.945 -1.05,1.785 h 1.89 c 0.316,-0.841 0,-1.365 -0.84,-1.785 z"
     fill="#ffffff"
     id="path14"
     style="clip-rule:evenodd;fill-rule:evenodd" />
  <path
     d="m 55.041,91.729 c 0.315,-0.63 0.945,-2.417 1.155,-3.046 -0.21,-0.631 -0.84,-1.156 -1.471,-1.156 0.315,-0.631 1.365,-1.576 1.261,-1.996 -0.315,-0.631 -0.841,-0.42 -1.892,-1.051 0.315,-0.735 1.261,-1.261 1.682,-1.261 0.63,-0.106 0.63,-1.051 1.681,-1.471 1.051,-0.63 2.102,-0.63 3.362,-0.63 1.787,0.105 6.304,1.365 5.149,6.934 2.732,5.674 12.398,-1.891 15.76,-1.891 -0.63,1.366 -1.366,2.522 -2.102,3.783 0.945,0.63 2.102,0 3.152,0 -1.051,3.047 -2.837,4.413 -4.413,5.568 1.576,5.044 7.355,3.046 12.503,2.417 -0.63,1.68 -2.731,1.996 -3.677,3.256 1.681,1.787 3.677,4.203 4.938,6.83 -2.311,-1.576 -7.04,-3.258 -8.721,-3.783 -3.047,-1.26 -9.352,-1.26 -12.397,0 0.525,1.156 1.786,1.787 2.731,2.523 -1.577,3.047 -4.729,1.26 -6.62,0.629 -1.576,1.262 -4.517,1.262 -5.253,0.631 0,0 0,-0.734 0.945,-1.576 0.525,-0.734 -1.891,-1.051 -2.626,-2.207 0,-1.051 1.365,0 1.996,-1.26 -1.575,-3.046 -8.09,-3.783 -7.143,-11.243 z m 4.412,-8.825 c 0.315,0 0.631,0.315 0.631,0.63 0,0.315 -0.315,0.63 -0.631,0.63 -0.315,0 -0.63,-0.315 -0.63,-0.63 0,-0.315 0.315,-0.63 0.63,-0.63 z m 39.717,9.771 c 0.209,-0.63 0.734,-2.417 1.26,-3.047 -0.525,-0.63 -1.051,-1.366 -1.576,-1.366 0.316,-0.63 1.367,-1.366 1.051,-1.891 -0.105,-0.525 -0.525,-0.42 -1.576,-1.051 0.211,-0.735 1.051,-1.156 1.576,-1.366 0.631,0 0.631,-0.841 1.576,-1.472 1.051,-0.419 2.312,-0.419 3.469,-0.63 1.68,0.315 6.408,1.576 5.146,7.145 C 112.828,94.46 122.6,87 125.963,87 c -0.631,1.261 -1.576,2.627 -2.207,3.783 0.945,0.631 2.207,0 3.258,0 -1.051,3.047 -2.943,4.413 -4.414,5.674 1.471,4.833 7.25,3.046 12.398,2.417 -0.525,1.682 -2.73,1.785 -3.781,3.152 1.891,1.891 3.781,4.307 5.043,6.828 -2.312,-1.471 -7.145,-3.15 -8.617,-3.781 -3.256,-1.156 -9.455,-1.156 -12.607,0 0.525,1.26 1.891,1.891 2.838,2.416 -1.682,3.258 -4.729,1.365 -6.516,0.84 -1.68,1.156 -4.623,1.156 -5.359,0.525 0,0 0,-0.84 0.947,-1.471 0.629,-0.945 -1.787,-1.051 -2.627,-2.311 0,-1.156 1.26,0 1.996,-1.156 -1.682,-3.256 -7.987,-3.885 -7.145,-11.241 z m 4.307,-8.825 c 0.422,0 0.525,0.105 0.525,0.63 0,0.315 -0.104,0.525 -0.525,0.525 -0.314,0 -0.629,-0.21 -0.629,-0.525 0,-0.525 0.314,-0.63 0.629,-0.63 z m -25.531,40.136 c 0.314,-0.631 0.945,-2.416 1.365,-3.047 -0.42,-0.631 -1.051,-1.365 -1.576,-1.365 0.21,-0.631 1.261,-1.367 1.156,-1.787 -0.315,-0.631 -0.631,-0.525 -1.892,-1.156 0.525,-0.734 1.261,-1.156 1.892,-1.365 0.525,0 0.525,-0.84 1.471,-1.471 1.051,-0.42 2.312,-0.42 3.468,-0.631 1.681,0.211 6.198,1.576 5.043,7.145 2.731,5.463 12.608,-1.996 15.971,-1.996 -0.631,1.262 -1.576,2.627 -2.207,3.887 0.945,0.527 2.207,0 3.047,0 -0.84,2.943 -2.73,4.203 -4.203,5.568 1.473,4.834 7.25,3.049 12.398,2.418 -0.525,1.682 -2.73,1.785 -3.783,3.047 1.893,1.996 3.783,4.412 5.045,6.934 -2.312,-1.471 -7.145,-3.15 -8.617,-3.781 -3.256,-1.156 -9.455,-1.156 -12.607,0 0.525,1.26 1.786,1.891 2.837,2.416 -1.681,3.258 -4.728,1.365 -6.725,0.631 -1.471,1.367 -4.307,1.367 -5.253,0.734 0,0 0,-0.84 1.051,-1.471 0.63,-0.945 -1.786,-1.051 -2.627,-2.311 0,-1.156 1.261,0 1.996,-1.156 -1.682,-3.258 -8.196,-3.782 -7.25,-11.243 z m 4.517,-8.826 c 0.21,0 0.526,0.105 0.526,0.631 0,0.105 -0.316,0.42 -0.526,0.42 -0.42,0 -0.735,-0.314 -0.735,-0.42 0,-0.525 0.315,-0.631 0.735,-0.631 z"
     fill="#cf4037"
     id="path16"
     style="clip-rule:evenodd;fill-rule:evenodd" />
  <path
     d="m 32.345,115.055 c 0.315,-1.365 1.366,-2.416 2.626,-2.627 2.312,-0.525 4.203,-3.256 6.41,-3.572 3.677,-0.42 6.304,3.047 5.778,4.939 -0.945,1.785 -5.464,3.887 -4.203,5.779 2.522,3.676 4.413,5.672 4.728,9.035 0.21,1.891 -3.362,2.312 -3.362,4.309 2.627,4.201 23.115,28.367 40.032,34.988 0.315,-1.682 0.105,-3.047 4.098,-3.469 3.677,-0.209 10.192,-0.209 13.973,-0.42 4.623,-0.211 4.098,4.098 5.779,3.467 17.127,-6.408 36.145,-28.578 39.822,-35.197 0,-1.156 -1.787,-2.102 -2.521,-2.941 -0.945,-0.947 -0.316,-3.574 0.105,-4.52 1.365,-2.73 2.836,-4.201 4.412,-7.459 -1.365,-2.418 -2.836,-2.207 -4.098,-3.889 -1.051,-2.836 3.781,-6.934 6.725,-5.148 2.207,0.947 3.467,2.207 5.777,3.469 2.838,1.576 2.312,4.307 1.473,6.725 -1.156,3.152 -3.363,6.094 -4.729,9.771 -0.947,2.627 1.156,2.416 1.471,3.361 1.365,0.945 1.576,2.627 -0.211,5.359 -8.93,14.498 -27.002,32.57 -44.443,39.926 -1.576,0.631 -2.627,1.262 -5.885,0.631 -2.416,-0.525 -1.785,-3.678 -2.941,-4.729 -0.42,-1.051 -15.13,-0.42 -15.97,0.736 -0.526,2.1 -1.786,4.832 -4.308,4.098 -17.652,-4.52 -45.181,-35.83 -47.913,-41.188 -0.945,-2.102 0.525,-4.939 2.522,-6.516 0.21,-0.734 -1.051,-2.73 -1.156,-3.572 -1.364,-3.255 -4.937,-7.563 -3.991,-11.346 z"
     fill="#cf4037"
     id="path18"
     style="clip-rule:evenodd;fill-rule:evenodd" />
  <path
     d="m 149.812,109.383 c -1.051,0.209 -3.572,2.311 -2.311,3.467 2.73,0.42 1.26,-2.627 2.521,-2.943 1.891,0 1.365,1.996 2.941,1.262 0.738,-1.263 -2.309,-1.997 -3.151,-1.786 z m 2.208,4.096 -1.262,-1.365 c -0.525,0.525 -1.471,1.365 -1.891,1.891 0.42,0.945 1.156,1.682 1.996,2.207 0.631,-0.001 0.946,-2.103 1.157,-2.733 z m 7.039,1.576 c 0.525,-1.154 -3.361,-3.887 -4.938,-3.781 0,1.365 -0.525,2.311 -1.576,4.518 -1.576,3.678 -4.518,6.514 -5.674,10.086 -0.211,0.631 -0.631,1.367 0,1.996 2.311,-1.574 4.623,-1.785 6.619,0.631 0.525,-0.42 0.734,-1.682 1.051,-2.416 1.365,-2.943 4.518,-6.937 4.518,-11.034 z m -9.666,13.029 c -0.314,0 -1.365,0.736 -1.576,0.945 0,0.525 0.631,0.945 1.051,1.367 0.736,-0.421 0.944,-1.576 0.525,-2.312 z m 6.724,6.514 c 0.314,-1.996 -1.051,-2.521 -2.102,-3.467 -0.945,-0.945 -1.996,-1.576 -2.836,-2.521 -0.422,1.787 0,1.787 -1.473,3.467 -8.93,13.66 -25.846,29.631 -38.77,35.619 -2.941,1.576 -4.729,1.891 -7.145,1.682 0,0.525 0.631,1.576 0.734,2.102 0.631,1.785 -0.314,6.408 5.779,4.938 0,0 12.084,-4.518 25.742,-17.127 16.393,-15.236 20.071,-24.693 20.071,-24.693 z m -50.748,32.572 c -0.316,-0.209 -0.842,0.314 -1.156,0.525 0.211,0.211 0.945,0.525 1.785,0.314 0,-0.628 -0.629,-0.628 -0.629,-0.839 z m -3.152,0.84 c -0.211,-1.365 1.785,-1.365 2.311,-1.996 1.051,-1.68 -15.234,-0.84 -17.231,-0.209 -0.21,0.629 2.102,1.26 1.786,3.152 -0.21,0.945 -1.051,1.785 -0.84,2.941 6.199,-1.051 10.086,-1.051 14.814,-0.42 0.314,-0.736 -1.26,-2.312 -0.84,-3.468 z m -14.501,-0.315 c -0.42,0 -1.155,-0.525 -1.576,-0.525 -0.209,0.211 -0.419,0.42 -0.419,0.84 0.419,0.422 2.206,0.631 1.995,-0.315 z M 40.646,128.82 c -1.891,1.576 -5.989,4.098 -3.993,8.51 4.308,7.145 31.941,36.25 45.391,38.98 1.786,0.631 3.467,-0.631 3.887,-3.256 0.42,-2.627 1.261,-1.893 1.366,-3.469 -11.873,0.526 -44.34,-32.675 -46.651,-40.765 z m 4.308,1.366 c -0.631,-0.631 -1.681,-2.312 -2.732,-2.102 0,1.156 0.42,2.627 1.366,3.678 0.42,-0.42 0.945,-1.051 1.366,-1.576 z m -6.305,-18.493 c -0.946,0.42 -1.997,1.785 -3.153,1.996 -5.148,0.945 0.211,7.775 3.153,15.131 1.891,-2.102 3.152,-1.787 4.728,-1.576 0.735,0.314 2.312,1.996 3.152,1.68 0.315,-0.734 -1.787,-4.412 -2.417,-5.357 -1.68,-2.417 -4.201,-6.514 -5.463,-11.874 z m 4.099,0.735 c -0.421,0.422 -1.577,1.473 -1.892,1.998 0.315,1.049 0.526,1.68 1.156,2.836 l 2.732,-2.207 c -0.631,-0.735 -1.367,-1.366 -1.996,-2.627 z m -0.316,-2.522 c -1.156,0.105 -2.417,1.051 -1.787,2.732 1.05,-0.631 1.996,-2.102 2.942,-1.785 0.42,0.629 -0.21,1.154 1.576,3.047 0.42,0 0.735,-0.211 0.945,-0.422 -0.209,-1.996 -2.836,-3.361 -3.676,-3.572 z"
     fill="#ffffff"
     id="path20"
     style="clip-rule:evenodd;fill-rule:evenodd" />
  <path
     d="m 40.225,137.541 c 0.315,-0.211 0.42,-0.211 0.63,-0.105 l 0.21,0.105 0.105,-0.105 c -0.105,-0.316 -0.42,-0.525 -0.63,-0.842 -0.104,-0.314 -0.42,-0.629 -0.63,-1.049 -0.211,-0.105 -0.315,0.104 -0.315,0.104 l 0.21,0.316 c 0.105,0.314 0.105,0.42 -0.21,0.629 l -0.421,0.316 c -0.42,0.209 -0.525,0.209 -0.735,-0.105 -0.21,-0.314 -0.42,-0.525 -0.42,-1.051 0,-0.631 0.315,-1.26 1.155,-1.891 1.051,-0.84 2.207,-0.945 2.942,0.104 0.42,0.527 0.42,1.156 0,1.893 0,0 0.105,0.211 0.105,0.105 0.315,-0.316 0.84,-0.631 0.946,-0.736 -0.105,-0.209 -0.21,-0.734 -0.631,-1.365 -0.525,-0.631 -0.945,-1.051 -1.471,-1.156 -0.946,-0.631 -1.996,-0.42 -2.732,0.211 -0.945,0.631 -1.261,1.576 -1.051,2.627 0.21,0.525 0.315,0.945 0.63,1.365 0.315,0.42 0.736,0.84 1.051,1.156 0.21,0 0.315,0.209 0.42,0.209 0.105,0.105 0.21,0 0.21,-0.105 -0.105,-0.104 0,-0.104 0.315,-0.42 z m 0.841,1.68 c -0.63,0.525 -0.63,0.525 -0.946,0.316 l -0.209,-0.211 -0.211,0.211 c 0.211,0.314 0.525,0.525 0.736,0.84 0.314,0.316 0.524,0.631 0.735,0.945 0.21,0 0.315,-0.105 0.315,-0.211 l -0.105,-0.104 c -0.21,-0.314 -0.21,-0.42 0.314,-0.945 l 0.841,-0.525 c 0,-0.211 0,-0.211 0.315,0 0,0.209 0.105,0.314 0,0.525 l -0.63,1.26 c -0.105,0.631 -0.105,1.156 0.315,1.787 0.315,0.105 0.42,0.314 0.525,0.42 0.105,0 0.21,-0.209 0.21,-0.209 -0.105,-0.105 -0.21,-0.211 -0.21,-0.527 0,-0.525 0.315,-1.154 0.735,-2.205 0.105,-0.105 0.105,-0.211 0.21,-0.211 0.315,0.316 0.84,0.422 1.366,0 0.421,-0.314 0.525,-0.84 0.421,-1.26 0,-0.422 -0.315,-0.842 -0.736,-1.367 -0.42,-0.631 -0.946,-1.051 -1.261,-1.471 -0.105,0 -0.315,0.105 -0.315,0.211 l 0.105,0.104 c 0.21,0.316 0.21,0.316 -0.42,0.842 z m 3.257,-1.26 c 0.21,-0.211 0.315,-0.211 0.525,0 0.42,0.42 0.21,1.156 -0.315,1.576 -0.314,0.314 -0.63,0.314 -0.735,0.314 -0.315,0 -0.42,-0.105 -0.63,-0.314 -0.315,-0.316 -0.315,-0.42 -0.105,-0.631 z m 1.471,5.988 c 0.21,0.211 0.21,0.316 0.104,0.42 l -0.315,0.525 c -0.104,0.316 -0.21,0.525 -0.315,0.525 h -0.209 l -0.21,-0.314 c -0.105,0 -0.21,0.105 -0.21,0.314 0.21,0.211 0.42,0.422 0.735,0.736 0.21,0.314 0.421,0.631 0.735,0.945 0,0 0.21,-0.105 0.21,-0.211 l -0.21,-0.209 c -0.104,-0.314 0,-0.525 0.21,-0.945 L 48,143.004 c 0.315,-0.525 0.42,-0.842 0.525,-1.051 0.104,-0.105 0.104,-0.105 0,-0.211 0,0 -0.525,0 -0.736,-0.209 -0.21,0.105 -0.525,0.209 -0.945,0.42 l -1.891,0.736 c -0.631,0.209 -0.946,0.42 -1.366,0.42 -0.21,0.105 -0.42,0 -0.525,-0.105 l -0.21,-0.211 c -0.104,0 -0.315,0.211 -0.21,0.316 l 0.526,0.525 c 0.21,0.314 0.42,0.525 0.63,0.84 0.105,0 0.21,-0.209 0.21,-0.209 l -0.105,-0.316 c -0.105,-0.105 -0.105,-0.209 -0.105,-0.209 0.105,-0.105 0.105,-0.105 0.21,-0.105 l 0.946,-0.42 c 0.105,-0.105 0.105,-0.105 0.314,0.105 z m -0.211,-0.84 c 0,-0.105 -0.104,-0.105 0.105,-0.211 l 0.63,-0.209 c 0.316,-0.211 0.735,-0.316 0.735,-0.422 0,0.211 -0.105,0.525 -0.315,0.842 l -0.42,0.525 c 0,0.209 -0.105,0.105 -0.21,0 z m 6.41,5.569 c 0.421,-0.42 0.946,-0.736 1.156,-0.84 0.106,-0.105 0.211,0 0.42,0.104 l 0.105,0.105 c 0.21,0 0.21,-0.209 0.21,-0.209 -0.21,-0.316 -0.315,-0.42 -0.63,-0.631 -0.211,-0.211 -0.421,-0.525 -0.631,-0.736 -0.21,0 -0.21,0.105 -0.21,0.211 v 0.105 c 0.21,0.209 0.315,0.314 0.21,0.42 -0.105,0.314 -0.525,0.734 -0.946,1.26 l -0.735,0.736 c -0.105,0.105 -0.21,0.105 -0.316,0.209 0.105,-0.314 0.105,-0.629 0.105,-1.154 l 0.105,-1.051 c 0.105,-1.051 0.105,-1.787 0.315,-2.102 -0.105,-0.105 -0.315,-0.316 -0.42,-0.525 -0.315,-0.314 -0.526,-0.525 -0.735,-0.736 -0.105,-0.104 -0.21,0.105 -0.316,0.105 l 0.211,0.211 c 0.105,0.209 0.105,0.42 0.105,0.525 0,0.209 -0.105,0.209 -0.421,0.42 l -1.366,1.471 c -0.525,0.525 -0.945,0.842 -1.156,0.945 -0.105,0 -0.315,0 -0.525,-0.104 l -0.105,-0.105 -0.21,0.209 c 0.21,0.316 0.525,0.42 0.735,0.631 0.105,0.211 0.315,0.42 0.63,0.736 l 0.21,-0.211 -0.105,-0.211 c -0.105,-0.104 -0.209,-0.314 -0.209,-0.42 0.104,-0.209 0.525,-0.629 0.945,-1.156 l 1.05,-1.049 c 0.315,-0.211 0.421,-0.316 0.421,-0.316 0.105,0.211 0,0.631 -0.105,1.365 l -0.315,2.732 c 0,0.631 -0.104,1.156 -0.104,1.156 0.104,0.105 0.314,0.211 0.42,0.211 0.21,-0.211 0.525,-0.527 0.946,-0.947 z m 0.105,2.836 c -0.525,0.527 -0.63,0.527 -0.945,0.422 l -0.21,-0.211 -0.105,0.211 c 0.315,0.314 0.63,0.525 0.945,0.84 0.105,0.211 0.315,0.525 0.631,0.736 0.525,0.629 1.155,0.945 1.786,1.154 0.841,0.316 1.786,0 2.627,-0.734 0.63,-0.736 0.945,-1.682 0.314,-2.838 -0.21,-0.42 -0.63,-0.84 -1.051,-1.365 -0.63,-0.631 -1.05,-1.051 -1.576,-1.365 -0.105,-0.105 -0.21,0.104 -0.21,0.104 l 0.105,0.105 c 0.21,0.316 0.105,0.42 -0.315,0.945 z m 2.943,-1.471 c 0.209,-0.104 0.315,-0.209 0.42,-0.314 0.105,0 0.21,0.105 0.315,0.211 1.051,1.051 1.051,2.102 0,3.256 -0.735,0.736 -1.892,1.262 -2.837,0.316 -0.21,-0.211 -0.315,-0.42 -0.315,-0.631 0,-0.316 0.105,-0.42 0.525,-0.736 z m 4.517,4.098 c 0.21,-0.209 0.21,-0.209 0.315,-0.104 l 0.525,0.523 c 0.315,0.211 0.315,0.422 0.315,0.736 0,0.105 0,0.316 -0.105,0.525 0.105,0.211 0.105,0.316 0.21,0.316 0.315,-0.525 0.735,-0.947 0.735,-1.051 0,-0.105 -0.315,-0.316 -0.84,-0.736 l -1.156,-1.051 c -0.315,-0.314 -0.631,-0.525 -0.946,-0.84 0,0 -0.104,0.104 -0.104,0.314 l 0.104,0.105 c 0.21,0.314 0.21,0.314 -0.315,0.84 l -1.891,2.207 c -0.42,0.525 -0.63,0.525 -0.84,0.314 l -0.21,-0.104 c -0.21,0 -0.315,0.104 -0.315,0.209 0.42,0.422 0.735,0.525 1.05,0.84 l 0.736,0.736 c 0.525,0.314 0.945,0.945 1.365,1.156 0.211,-0.105 0.735,-0.42 1.051,-0.736 0,-0.105 0,-0.211 -0.105,-0.211 -0.946,0.422 -1.156,0.211 -1.681,-0.209 -0.42,-0.314 -0.525,-0.525 -0.42,-0.736 0,-0.104 0.105,-0.418 0.42,-0.734 l 0.525,-0.631 c 0.21,-0.105 0.21,-0.105 0.315,0 l 0.42,0.316 c 0.315,0.314 0.315,0.42 0.21,0.734 l -0.104,0.211 c -0.105,0.104 0.104,0.314 0.104,0.209 0.316,-0.209 0.421,-0.42 0.631,-0.629 0.21,-0.211 0.42,-0.525 0.525,-0.631 0,-0.105 -0.105,-0.211 -0.315,-0.211 v 0.105 c -0.315,0.211 -0.525,0.211 -0.735,-0.105 l -0.42,-0.209 c -0.209,-0.211 -0.104,-0.316 0,-0.422 z m 3.152,7.041 c 0.525,-0.631 0.42,-1.367 0.104,-1.787 L 62.71,158.87 c -0.21,-0.525 -0.21,-0.945 0,-1.26 0.21,-0.211 0.63,-0.422 0.945,0 0.525,0.314 0.315,0.945 0.315,1.365 0,0.105 0.21,0.211 0.21,0.211 0.315,-0.316 0.525,-0.842 0.631,-0.947 0,-0.105 -0.105,-0.105 -0.211,-0.314 -0.105,-0.209 -0.42,-0.42 -0.63,-0.525 -0.841,-0.734 -1.787,-0.734 -2.312,0 -0.42,0.525 -0.315,1.262 -0.105,1.891 0.211,0.422 0.42,1.051 0,1.576 -0.21,0.316 -0.63,0.42 -1.156,0 -0.42,-0.314 -0.42,-1.26 -0.209,-1.785 0,0 -0.105,-0.211 -0.211,-0.105 -0.42,0.42 -0.735,0.84 -0.735,1.156 0.105,0.209 0.315,0.734 0.84,1.051 0.947,0.837 1.998,0.837 2.628,-0.002 z m 5.359,-0.317 c -0.736,-0.525 -1.366,-0.84 -2.207,-0.734 -0.734,0 -1.366,0.209 -1.996,1.051 -0.526,0.734 -0.63,1.576 -0.42,2.207 0.21,0.734 0.735,1.365 1.261,1.891 0.421,0.42 1.155,0.525 1.471,0.631 0.21,-0.105 0.631,-0.422 1.051,-0.842 0,-0.105 -0.105,-0.209 -0.209,-0.314 -0.421,0.42 -1.261,0.734 -1.997,0.105 -0.735,-0.525 -1.051,-1.787 -0.105,-3.049 0.945,-1.154 2.207,-1.26 2.942,-0.734 0.63,0.42 0.735,1.051 0.42,1.785 0,0.105 0.21,0.211 0.315,0.105 0.21,-0.314 0.525,-0.84 0.63,-0.945 -0.211,-0.211 -0.525,-0.737 -1.156,-1.157 z m 0.42,4.309 c -0.63,0.736 -0.736,1.365 -0.63,1.787 0.21,0.629 0.63,1.049 1.05,1.365 0.525,0.314 1.156,0.42 1.681,0.314 0.525,-0.209 1.051,-0.631 1.472,-1.26 l 0.525,-0.736 c 0.315,-0.525 0.63,-0.945 0.84,-1.156 0.21,-0.104 0.315,-0.104 0.525,0 l 0.104,0.105 c 0.105,-0.105 0.21,-0.209 0.105,-0.209 -0.21,-0.211 -0.42,-0.316 -0.63,-0.631 -0.315,0 -0.526,-0.316 -0.946,-0.525 l -0.105,0.209 0.105,0.211 c 0.21,0.105 0.315,0.314 0.315,0.42 0,0.316 -0.42,0.736 -0.84,1.262 l -0.421,0.84 c -0.63,0.84 -1.366,1.471 -2.207,0.84 -0.945,-0.629 -0.525,-1.576 0,-2.311 l 1.051,-1.471 c 0.315,-0.631 0.42,-0.631 0.736,-0.525 l 0.21,0.104 c 0.105,0 0.21,-0.209 0.105,-0.209 -0.21,-0.316 -0.525,-0.42 -0.946,-0.631 -0.315,-0.314 -0.63,-0.525 -0.945,-0.631 l -0.105,0.105 0.105,0.211 c 0.315,0.209 0.315,0.314 -0.105,0.945 z m 9.666,4.937 c 0.42,-0.525 0.631,-1.154 0.946,-1.26 0,-0.105 0.21,-0.105 0.315,0 l 0.21,0.105 c 0.104,-0.105 0.104,-0.211 0.104,-0.316 -0.314,-0.105 -0.525,-0.314 -0.735,-0.42 -0.21,-0.211 -0.525,-0.314 -0.946,-0.42 -0.104,0 -0.104,0.105 -0.104,0.209 h 0.104 c 0.21,0.211 0.315,0.316 0.315,0.525 0,0.211 -0.315,0.736 -0.525,1.262 l -0.526,0.945 c -0.209,0.211 -0.209,0.314 -0.209,0.314 0,-0.209 -0.21,-0.629 -0.315,-1.154 l -0.21,-0.945 c -0.105,-1.051 -0.314,-1.787 -0.21,-2.207 -0.21,0 -0.315,-0.211 -0.525,-0.316 -0.315,-0.209 -0.735,-0.314 -0.946,-0.523 -0.21,0 -0.21,0.104 -0.21,0.314 h 0.21 c 0.105,0.209 0.21,0.314 0.21,0.525 0,0.105 -0.105,0.211 -0.21,0.631 l -1.051,1.785 c -0.314,0.525 -0.63,0.945 -0.84,1.156 -0.104,0.105 -0.21,0 -0.42,0 h -0.105 c -0.105,0 -0.21,0.105 -0.21,0.209 0.315,0.211 0.631,0.211 0.84,0.422 0.21,0.104 0.526,0.314 0.841,0.525 0.104,-0.105 0.104,-0.211 0.104,-0.316 l -0.104,-0.105 c -0.21,-0.104 -0.315,-0.314 -0.315,-0.42 0.105,-0.209 0.315,-0.84 0.63,-1.365 l 0.736,-1.262 c 0.105,-0.209 0.21,-0.42 0.315,-0.42 0,0.211 0.105,0.525 0.21,1.262 l 0.525,2.836 c 0.105,0.525 0.105,1.156 0.105,1.156 h 0.525 c 0.105,-0.314 0.421,-0.631 0.63,-1.156 z m 2.207,3.153 C 80.047,174 79.942,174 79.521,174 l -0.315,-0.211 c -0.105,0 -0.105,0.211 -0.105,0.211 0.525,0.314 0.946,0.42 1.261,0.629 0.315,0.105 0.631,0.316 1.156,0.525 v -0.314 l -0.209,-0.105 c -0.315,-0.209 -0.315,-0.209 0,-0.945 l 1.471,-3.152 c 0.105,-0.209 0.105,-0.209 0.21,-0.105 l 0.525,0.211 c 0.525,0.314 0.525,0.631 0.42,1.156 0,0 0.21,0.105 0.21,0 0.21,-0.314 0.526,-0.842 0.631,-1.051 v -0.105 H 84.67 c -0.21,0 -0.21,0 -0.736,-0.314 l -2.626,-1.156 c -0.526,-0.314 -0.526,-0.314 -0.526,-0.42 -0.105,0 0,0 -0.105,-0.105 h -0.105 c -0.21,0.211 -0.42,0.736 -0.841,1.051 0,0.105 0.105,0.314 0.316,0.314 0.42,-0.42 0.63,-0.629 1.156,-0.42 l 0.525,0.211 c 0.105,0.105 0.105,0.105 0.105,0.209 z m 30.89,-0.526 c 0.211,-0.105 0.316,-0.105 0.422,0 l 0.523,0.525 c 0.211,0.316 0.422,0.42 0.422,0.525 0,0 0,0.105 -0.211,0.211 l -0.211,0.209 c -0.104,0 0,0.105 0.211,0.211 0.314,-0.211 0.631,-0.316 0.945,-0.525 0.42,-0.105 0.842,-0.314 1.156,-0.42 v -0.316 l -0.42,0.105 c -0.316,0 -0.42,-0.105 -0.842,-0.525 l -2.311,-2.416 c -0.525,-0.525 -0.631,-0.736 -0.842,-0.945 -0.104,-0.105 -0.104,-0.105 -0.209,-0.105 0,0 -0.209,0.42 -0.42,0.736 0,0.314 0,0.629 0.105,1.154 l 0.105,2.102 v 1.471 c 0,0.316 0,0.42 -0.211,0.631 l -0.316,0.105 c 0,0.105 0.105,0.209 0.211,0.314 0.316,-0.105 0.525,-0.314 0.84,-0.42 0.422,-0.211 0.631,-0.314 0.947,-0.314 0,-0.105 -0.105,-0.316 -0.105,-0.316 h -0.63 c 0,0 -0.105,-0.105 -0.105,-0.314 v -0.945 c -0.105,-0.211 -0.105,-0.211 0.105,-0.316 z m -0.84,-0.105 c -0.211,0.105 -0.211,0.105 -0.316,-0.104 l -0.104,-0.631 v -1.051 c 0.209,0.105 0.314,0.42 0.631,0.631 l 0.525,0.629 c 0.104,0.105 0.104,0.211 -0.105,0.316 z m 3.258,-1.471 c 0.42,0.945 0.84,1.367 1.365,1.471 0.631,0.105 1.26,0 1.785,-0.209 0.527,-0.316 0.947,-0.945 1.156,-1.471 0.105,-0.631 -0.104,-1.262 -0.525,-1.996 l -0.42,-0.736 c -0.211,-0.736 -0.525,-1.365 -0.525,-1.471 0,-0.211 0.105,-0.316 0.314,-0.525 l 0.105,-0.105 -0.105,-0.209 c -0.314,0.104 -0.525,0.314 -0.84,0.42 -0.314,0.104 -0.631,0.314 -1.051,0.42 0,0.105 0,0.314 0.105,0.314 h 0.314 c 0.211,-0.104 0.316,-0.209 0.525,0 0.105,0.105 0.42,0.631 0.736,1.262 l 0.525,0.945 c 0.525,1.051 0.631,1.891 -0.316,2.416 -1.154,0.631 -1.785,-0.314 -2.1,-1.156 l -0.947,-1.68 c -0.42,-0.736 -0.314,-0.842 0,-1.051 l 0.105,-0.211 c 0.105,0 0,-0.105 0,-0.209 -0.42,0.209 -0.84,0.525 -1.156,0.629 a 3.791,3.791 0 0 1 -1.154,0.525 c 0,0 0,0.316 0.209,0.316 l 0.211,-0.105 c 0.314,-0.105 0.42,-0.105 0.734,0.631 z m 5.777,-7.355 c -0.734,0.527 -1.365,1.156 -1.574,1.998 -0.211,0.629 -0.211,1.471 0.314,2.311 0.525,0.945 1.365,1.262 1.996,1.262 0.84,0.105 1.682,-0.105 2.311,-0.525 0.631,-0.316 0.947,-0.945 1.262,-1.262 0,-0.209 -0.105,-0.734 -0.42,-1.26 -0.105,0 -0.211,0.104 -0.316,0.104 0.105,0.631 0.105,1.473 -0.84,1.998 -0.734,0.629 -2.102,0.314 -2.941,-1.156 -0.842,-1.365 -0.525,-2.521 0.314,-3.047 0.736,-0.422 1.471,-0.422 1.996,0.209 0.105,0 0.316,-0.104 0.211,-0.314 -0.314,-0.316 -0.736,-0.945 -0.736,-1.051 -0.21,0.104 -0.946,0.315 -1.577,0.733 z m 6.094,1.156 c 0.525,0.631 0.525,0.736 0.211,1.051 l -0.314,0.211 c 0,0.105 0,0.209 0.314,0.209 0.314,-0.314 0.736,-0.629 0.945,-0.84 0.316,-0.209 0.736,-0.42 1.156,-0.734 0,-0.211 -0.105,-0.211 -0.211,-0.211 l -0.314,0.105 c -0.314,0.209 -0.42,0.209 -0.84,-0.42 l -2.207,-2.943 c -0.211,-0.209 -0.105,-0.314 0,-0.42 l 0.42,-0.209 c 0.525,-0.525 0.736,-0.211 1.365,0.104 0,0.105 0.105,-0.104 0.105,-0.104 -0.314,-0.422 -0.631,-1.051 -0.734,-1.262 0,0 -0.105,0 -0.105,0.105 h -0.105 c 0,0.209 0,0.314 -0.42,0.631 l -2.521,1.891 c -0.525,0.314 -0.631,0.314 -0.631,0.209 -0.105,0 -0.105,0 -0.105,0.105 -0.104,0 -0.104,0 -0.104,0.105 0.104,0.314 0.42,0.631 0.629,1.26 0.105,0.105 0.211,-0.104 0.316,-0.104 -0.211,-0.631 -0.211,-1.051 0.104,-1.471 l 0.525,-0.316 c 0.105,-0.105 0.211,0 0.316,0.105 z m 3.783,-3.678 c 0.211,-0.209 0.316,-0.209 0.316,-0.209 l 0.629,0.525 c 0.316,0.105 0.525,0.209 0.525,0.314 l -0.104,0.211 -0.105,0.209 c -0.105,0.105 0,0.211 0.209,0.316 0.211,-0.316 0.422,-0.525 0.736,-0.842 0.42,-0.209 0.84,-0.42 1.051,-0.734 0,-0.105 0,-0.314 -0.105,-0.211 l -0.314,0.105 c -0.316,0.105 -0.422,0.105 -0.945,-0.209 l -2.943,-1.893 a 4.096,4.096 0 0 1 -0.945,-0.736 h -0.314 c 0,0 0.104,0.527 -0.211,0.842 0.211,0.211 0.211,0.631 0.42,1.051 l 0.631,2.102 c 0.314,0.631 0.314,1.051 0.42,1.365 0.106,0.314 0,0.525 -0.105,0.631 l -0.209,0.211 c 0,0.104 0.105,0.209 0.209,0.314 0.316,-0.314 0.42,-0.525 0.631,-0.736 0.316,-0.105 0.631,-0.314 0.842,-0.42 0,-0.211 0,-0.314 -0.105,-0.314 h -0.211 l -0.314,0.211 c -0.105,-0.107 -0.211,-0.211 -0.211,-0.316 l -0.314,-0.945 c -0.105,-0.211 -0.105,-0.211 0,-0.316 z m -0.84,0.106 c -0.211,0 -0.316,0.105 -0.316,-0.105 l -0.314,-0.523 c -0.105,-0.525 -0.211,-0.842 -0.316,-1.051 0.211,0.104 0.527,0.314 0.842,0.525 l 0.631,0.42 c 0.105,0.105 0.105,0.105 0,0.209 z m 4.098,-6.2 c -0.525,-0.525 -0.525,-0.631 -0.314,-0.945 l 0.104,-0.105 c 0,-0.209 0,-0.314 -0.104,-0.314 -0.316,0.42 -0.527,0.734 -0.842,0.945 -0.314,0.316 -0.631,0.525 -1.051,0.842 0,0.104 0.211,0.209 0.211,0.104 h 0.209 c 0.316,-0.314 0.422,-0.314 0.945,0.316 l 2.207,2.311 c 0.42,0.42 0.525,0.525 0.314,0.842 l -0.209,0.314 c 0,0.105 0.105,0.105 0.314,0.211 0.316,-0.422 0.525,-0.736 0.842,-1.051 l 0.734,-0.736 c 0.525,-0.42 1.156,-1.051 1.471,-1.26 -0.104,-0.316 -0.42,-0.947 -0.734,-1.262 -0.105,0 -0.211,0.105 -0.211,0.105 0.316,1.156 0.105,1.262 -0.42,1.785 -0.42,0.525 -0.525,0.525 -0.736,0.525 -0.209,0 -0.42,-0.209 -0.629,-0.525 z m 5.779,-2.416 c 0.209,-0.211 0.209,-0.211 0.314,-0.211 l 0.84,0.316 0.42,0.211 c 0.105,0.104 0.105,0.209 0,0.314 l -0.209,0.209 c 0,0.105 0.105,0.211 0.314,0.316 0.211,-0.42 0.422,-0.631 0.736,-0.945 0.314,-0.316 0.631,-0.631 0.84,-0.945 0,-0.105 -0.105,-0.211 -0.209,-0.211 l -0.211,0.211 c -0.314,0.104 -0.525,0.104 -0.945,-0.105 l -3.258,-1.367 c -0.525,-0.209 -0.84,-0.314 -1.051,-0.525 -0.104,0 -0.209,0 -0.314,0.105 0,0 0.105,0.525 0,0.842 0.105,0.209 0.314,0.523 0.525,0.945 l 0.945,1.996 c 0.314,0.525 0.631,0.945 0.736,1.156 0.104,0.42 0.104,0.629 -0.105,0.629 l -0.105,0.316 c 0,0.105 0.105,0.209 0.211,0.314 0.314,-0.42 0.42,-0.631 0.629,-0.84 0.211,-0.211 0.422,-0.42 0.736,-0.631 0,-0.105 -0.211,-0.316 -0.314,-0.316 l -0.211,0.211 c -0.105,0.105 -0.211,0.211 -0.211,0.105 -0.104,0 -0.209,0 -0.209,-0.211 l -0.525,-0.84 c -0.105,-0.211 -0.105,-0.211 0,-0.314 z m -0.841,0.317 c -0.105,0.104 -0.105,0.104 -0.314,-0.105 l -0.316,-0.525 c -0.104,-0.316 -0.42,-0.736 -0.42,-0.947 0.105,0 0.525,0.316 0.842,0.422 l 0.629,0.314 c 0.211,0 0.211,0.105 0,0.211 z m 3.992,-2.524 c 0.631,0.422 0.631,0.525 0.525,0.842 l -0.209,0.209 c 0,0.105 0.105,0.211 0.314,0.211 0.314,-0.316 0.525,-0.631 0.736,-0.945 a 4.46,4.46 0 0 1 0.734,-0.631 c 0.316,-0.42 0.631,-0.842 0.842,-1.471 0.209,-0.525 0.105,-1.051 -0.422,-1.682 -0.734,-0.42 -1.26,-0.314 -1.891,0.105 h -0.105 c 0,0 0,-0.105 0.105,-0.105 0,-0.314 0.211,-0.84 -0.314,-1.365 -0.316,-0.42 -0.736,-0.42 -1.156,-0.316 -0.42,0.211 -0.84,0.525 -1.471,1.051 -0.42,0.631 -0.736,1.156 -1.262,1.682 0,0.105 0.211,0.211 0.316,0.211 l 0.105,-0.105 c 0.209,-0.316 0.314,-0.211 1.051,0.314 z m -1.785,-3.15 c -0.314,-0.316 -0.314,-0.316 -0.105,-0.631 0.42,-0.42 0.945,-0.525 1.471,-0.105 0.42,0.42 0.525,0.84 0.211,1.365 -0.316,0.42 -0.316,0.42 -0.631,0.211 z m 1.681,1.471 c -0.211,-0.316 -0.211,-0.316 0.104,-0.631 0.422,-0.525 1.156,-0.525 1.682,0 0.525,0.314 0.736,0.945 0.314,1.365 -0.42,0.525 -0.84,0.316 -1.365,-0.105 z m 1.68,-6.516 c -1.051,1.367 -0.734,3.047 0.525,4.098 1.471,0.947 3.047,0.631 4.098,-0.629 1.051,-1.473 0.842,-3.152 -0.629,-4.203 -1.367,-1.051 -3.049,-0.737 -3.994,0.734 z m 3.363,0.42 c 1.051,0.736 1.682,1.682 1.051,2.523 -0.842,1.154 -2.418,0.525 -3.258,0 -1.051,-0.842 -1.471,-1.893 -0.945,-2.732 0.631,-0.842 1.89,-0.631 3.152,0.209 z m 2.836,-1.051 c 0.631,0.42 0.631,0.525 0.525,0.842 l -0.105,0.209 c 0,0.105 0.211,0.105 0.316,0.211 0.209,-0.42 0.42,-0.631 0.631,-1.051 0.209,-0.314 0.42,-0.631 0.734,-0.945 0,-0.105 -0.209,-0.209 -0.314,-0.209 l -0.105,0.209 c -0.314,0.104 -0.314,0.104 -1.051,-0.209 l -0.84,-0.527 c -0.105,-0.209 -0.105,-0.209 0.104,-0.42 0.105,-0.209 0.211,-0.209 0.422,-0.209 0.525,0.104 1.051,0.104 1.471,0.209 0.631,0.105 1.26,-0.209 1.68,-0.734 0.211,-0.316 0.316,-0.422 0.316,-0.736 h -0.211 c -0.105,0.105 -0.314,0.211 -0.525,0.314 -0.42,0.105 -1.26,0 -2.416,-0.209 -0.105,0 -0.105,0 -0.105,-0.105 0,-0.42 0.105,-1.051 -0.525,-1.365 -0.525,-0.316 -0.945,-0.316 -1.471,-0.211 -0.314,0.211 -0.84,0.631 -1.156,1.156 -0.523,0.734 -0.84,1.26 -1.154,1.785 0,0.105 0.209,0.211 0.209,0.211 l 0.211,-0.211 c 0.211,-0.314 0.314,-0.209 0.945,0.316 z m -2.205,-2.941 c -0.316,-0.314 -0.316,-0.314 -0.105,-0.631 0.314,-0.525 1.051,-0.629 1.682,-0.104 0.314,0.314 0.42,0.525 0.523,0.734 0.105,0.316 -0.104,0.42 -0.209,0.631 -0.314,0.42 -0.314,0.42 -0.525,0.211 z m 3.047,-4.834 c -0.211,-0.104 -0.316,-0.104 -0.211,-0.314 l 0.42,-0.629 c 0.105,-0.316 0.42,-0.527 0.631,-0.527 h 0.736 c 0,0 0.209,-0.209 0.104,-0.209 -0.42,-0.316 -1.051,-0.525 -1.154,-0.631 0,0.211 -0.316,0.525 -0.525,1.051 l -0.842,1.471 c -0.314,0.42 -0.525,0.736 -0.734,1.051 0,0 0.105,0.211 0.209,0.211 l 0.211,-0.211 c 0.209,-0.314 0.314,-0.314 0.945,0 l 2.627,1.682 c 0.631,0.42 0.631,0.42 0.631,0.734 l -0.211,0.422 c -0.105,0.104 0.211,0.209 0.314,0.104 0.316,-0.42 0.422,-0.84 0.631,-1.154 l 0.525,-0.945 c 0.422,-0.525 0.842,-1.262 1.051,-1.682 -0.105,-0.211 -0.629,-0.631 -0.84,-0.945 -0.211,0 -0.316,0.105 -0.316,0.209 0.631,0.945 0.422,1.156 0.105,1.787 -0.42,0.525 -0.42,0.631 -0.734,0.631 -0.105,0 -0.316,-0.105 -0.631,-0.316 l -0.84,-0.525 c -0.211,-0.105 -0.211,-0.105 -0.211,-0.314 l 0.314,-0.525 c 0.211,-0.422 0.316,-0.422 0.736,-0.211 l 0.209,0.105 c 0.105,0 0.211,-0.316 0.211,-0.316 -0.314,-0.104 -0.631,-0.209 -0.84,-0.418 -0.316,-0.211 -0.525,-0.422 -0.736,-0.422 0,-0.104 -0.209,0.105 -0.209,0.211 l 0.209,0.105 c 0.316,0.314 0.316,0.42 0.105,0.734 l -0.314,0.525 c -0.105,0.211 -0.105,0.211 -0.316,0.105 z"
     fill="#cf4037"
     id="path22"
     style="clip-rule:evenodd;fill-rule:evenodd" />
</svg>
