<?xml version="1.0" encoding="UTF-8" standalone="no"?>
<svg
   xmlns:dc="http://purl.org/dc/elements/1.1/"
   xmlns:cc="http://creativecommons.org/ns#"
   xmlns:rdf="http://www.w3.org/1999/02/22-rdf-syntax-ns#"
   xmlns:svg="http://www.w3.org/2000/svg"
   xmlns="http://www.w3.org/2000/svg"
   xmlns:sodipodi="http://sodipodi.sourceforge.net/DTD/sodipodi-0.dtd"
   xmlns:inkscape="http://www.inkscape.org/namespaces/inkscape"
   version="1.1"
   id="Calque_1"
   x="0px"
   y="0px"
   viewBox="0 0 286.07999 286.07998"
   xml:space="preserve"
   sodipodi:docname="UdeS_logo_only.svg"
   width="286.07999"
   height="286.07999"
   inkscape:export-filename="C:\Users\Chris\Dropbox\`USherbrooke\University Logos and Templates\Logos_UdeS\Logos_UdeS\Horizontale\Version_couleur\UdeS_logo_h_rgb.png"
   inkscape:export-xdpi="400"
   inkscape:export-ydpi="400"
   inkscape:version="1.0.2 (e86c870879, 2021-01-15, custom)"><metadata
   id="metadata81"><rdf:RDF><cc:Work
       rdf:about=""><dc:format>image/svg+xml</dc:format><dc:type
         rdf:resource="http://purl.org/dc/dcmitype/StillImage" /><dc:title></dc:title></cc:Work></rdf:RDF></metadata><defs
   id="defs79" /><sodipodi:namedview
   pagecolor="#ffffff"
   bordercolor="#666666"
   borderopacity="1"
   objecttolerance="10"
   gridtolerance="10"
   guidetolerance="10"
   inkscape:pageopacity="0"
   inkscape:pageshadow="2"
   inkscape:window-width="1843"
   inkscape:window-height="1198"
   id="namedview77"
   showgrid="false"
   fit-margin-top="0"
   fit-margin-left="0"
   fit-margin-right="0"
   fit-margin-bottom="0"
   inkscape:zoom="0.66919192"
   inkscape:cx="223.84577"
   inkscape:cy="40.631456"
   inkscape:window-x="2400"
   inkscape:window-y="59"
   inkscape:window-maximized="0"
   inkscape:current-layer="Calque_1"
   inkscape:document-rotation="0" />
<style
   type="text/css"
   id="style2">
	.st0{fill:#00A759;}
	.st1{fill:#FFFFFF;}
	.st2{fill:none;}
</style>

<g
   id="g64"
   transform="translate(-78.389999,-111.21001)">
	<g
   id="g58">
		<g
   id="g56">
			<rect
   x="78.389999"
   y="219.21001"
   class="st0"
   width="286.07999"
   height="146.50999"
   id="rect54" />
		</g>
	</g>
	<path
   class="st1"
   d="m 126.59,329.63 c -5.8,-6.55 -8.7,-16.71 -8.7,-30.47 v -40.75 c 0,-2.99 -2.16,-5.55 -5.11,-6.04 L 109,251.73 v -6.26 h 30.73 v 6.26 l -3.34,0.68 c -2.68,0.55 -4.61,2.91 -4.61,5.65 v 42.48 c 0,11.35 2.02,19.52 6.07,24.53 4.05,5.01 9.87,7.51 17.46,7.51 7.59,0 13.29,-2.67 17.08,-8.01 3.8,-5.34 5.69,-13.1 5.69,-23.28 v -42.96 c 0,-2.89 -2.03,-5.39 -4.87,-5.98 l -2.96,-0.62 v -6.26 h 26.47 v 6.26 l -3.85,0.63 c -3.05,0.5 -5.29,3.14 -5.29,6.23 v 42.07 c 0,13.02 -3.09,22.74 -9.26,29.16 -6.18,6.43 -14.39,9.64 -24.65,9.64 -12.25,-0.01 -21.29,-3.28 -27.08,-9.83 z"
   id="path60" />
	<path
   class="st1"
   d="m 288.75,339.02 c -3.42,-0.75 -7.14,-1.87 -11.26,-3 -2.63,-0.72 -5.63,-1.5 -5.63,-1.5 l 1,-22.65 h 8.01 c 0,0 0.18,13.77 2.13,16.27 1.01,1.3 3.73,2.52 6.95,3.57 3.21,1.04 6.74,1.56 10.57,1.56 6.34,0 11.16,-1.42 14.45,-4.25 3.29,-2.84 4.94,-6.76 4.94,-11.76 0,-3.25 -0.9,-6.05 -2.69,-8.39 -1.8,-2.33 -4.17,-4.34 -7.13,-6.01 -2.96,-1.67 -7.03,-3.63 -12.2,-5.88 -4.67,-2.08 -8.74,-4.21 -12.2,-6.38 -3.46,-2.17 -6.47,-5.07 -9.01,-8.7 -2.55,-3.63 -3.82,-7.99 -3.82,-13.08 0,-4.59 1.23,-8.7 3.69,-12.33 2.46,-3.63 6.01,-6.49 10.64,-8.57 4.63,-2.08 10.03,-3.13 16.21,-3.13 3.84,0 7.24,0.29 10.2,0.88 2.96,0.58 6.32,1.38 10.07,2.38 1.73,0.54 4.25,1.13 4.25,1.13 l -0.75,21.02 h -7.63 c 0,0 0.1,-12.84 -2.5,-15.39 -0.89,-0.88 -2.57,-1.63 -5.19,-2.38 -2.63,-0.75 -5.49,-1.13 -8.57,-1.13 -5.76,0 -10.12,1.21 -13.08,3.63 -2.96,2.42 -4.44,5.92 -4.44,10.51 0,3.34 0.9,6.13 2.69,8.39 1.79,2.25 4.02,4.17 6.7,5.76 2.67,1.59 6.92,3.75 12.76,6.51 5.42,2.59 9.84,4.92 13.27,7.01 3.42,2.09 6.36,4.82 8.82,8.2 2.46,3.38 3.69,7.4 3.69,12.08 0,4.42 -1.23,8.68 -3.69,12.76 -2.46,4.09 -6.22,7.45 -11.26,10.07 -5.05,2.63 -11.16,3.94 -18.33,3.94 -4.36,-0.02 -8.24,-0.39 -11.66,-1.14 z"
   id="path62" />
</g>
<g
   id="g68"
   transform="translate(-78.389999,-111.21001)">
	<path
   class="st1"
   d="m 258.6,276.93 c -2.61,-4.34 -6.26,-7.75 -10.93,-10.23 -4.67,-2.48 -12.28,-3.72 -18.5,-3.72 h -18.9 -5.53 v 4.47 c 0,0 5.53,-0.01 5.53,3.09 0,0 -0.12,13.79 -0.12,21.87 0,8.09 0.12,21.95 0.12,21.95 0,2.57 -5.53,3.05 -5.53,3.05 v 4.43 h 24.77 c 6.19,0 13.76,-1.25 18.4,-3.74 4.64,-2.49 8.23,-5.92 10.79,-10.27 2.55,-4.35 3.83,-9.29 3.83,-14.82 v -1.17 c -0.01,-5.6 -1.32,-10.57 -3.93,-14.91 z m -6.36,16 c 0,4.67 -0.97,8.85 -2.91,12.52 -1.94,3.68 -4.67,6.57 -8.2,8.68 -3.53,2.11 -9.28,3.16 -13.98,3.16 h -7.83 v -49.76 h 7.57 c 4.73,0 10.51,1.05 14.06,3.14 3.55,2.1 6.32,4.98 8.31,8.65 1.99,3.67 2.98,7.87 2.98,12.61 z"
   id="path66" />
</g>

</svg>
